<?xml version="1.0" encoding="UTF-8" standalone="no"?>
<svg
   version="1.1"
   width="1024"
   height="1024"
   viewBox="0 0 1024 1024"
   xml:space="preserve"
   id="svg45"
   sodipodi:docname="download.svg"
   inkscape:version="1.1 (c4e8f9e, 2021-05-24)"
   xmlns:inkscape="http://www.inkscape.org/namespaces/inkscape"
   xmlns:sodipodi="http://sodipodi.sourceforge.net/DTD/sodipodi-0.dtd"
   xmlns="http://www.w3.org/2000/svg"
   xmlns:svg="http://www.w3.org/2000/svg"
   xmlns:rdf="http://www.w3.org/1999/02/22-rdf-syntax-ns#"
   xmlns:cc="http://creativecommons.org/ns#"
   xmlns:dc="http://purl.org/dc/elements/1.1/"><metadata
   id="metadata49"><rdf:RDF><cc:Work
       rdf:about=""><dc:format>image/svg+xml</dc:format><dc:type
         rdf:resource="http://purl.org/dc/dcmitype/StillImage" /></cc:Work></rdf:RDF></metadata><sodipodi:namedview
   pagecolor="#ffffff"
   bordercolor="#666666"
   borderopacity="1"
   objecttolerance="10"
   gridtolerance="10"
   guidetolerance="10"
   inkscape:pageopacity="0"
   inkscape:pageshadow="2"
   inkscape:window-width="1920"
   inkscape:window-height="1003"
   id="namedview47"
   showgrid="false"
   inkscape:zoom="0.37207031"
   inkscape:cx="577.84777"
   inkscape:cy="524.09449"
   inkscape:window-x="1920"
   inkscape:window-y="27"
   inkscape:window-maximized="1"
   inkscape:current-layer="svg45"
   inkscape:document-rotation="0"
   inkscape:pagecheckerboard="0"
   units="mm"
   width="1024px" />
<desc
   id="desc2">Created with Fabric.js 3.6.3</desc>
<defs
   id="defs4">
<linearGradient
   id="SVGID_2_590408"
   gradientUnits="userSpaceOnUse"
   gradientTransform="matrix(0,1894.77,1894.77,0,2983.82,6697.74)"
   x1="0"
   y1="0"
   x2="1"
   y2="0"><stop
     offset="0%"
     style="stop-color:rgb(237,52,66);stop-opacity: 1"
     id="stop22" /><stop
     offset="4.268591%"
     style="stop-color:rgb(237,52,66);stop-opacity: 1"
     id="stop24" /><stop
     offset="38.340999999999994%"
     style="stop-color:rgb(194,21,44);stop-opacity: 1"
     id="stop26" /><stop
     offset="86.24770699999999%"
     style="stop-color:rgb(101,9,18);stop-opacity: 1"
     id="stop28" /><stop
     offset="98.7504%"
     style="stop-color:rgb(101,9,18);stop-opacity: 1"
     id="stop30" /><stop
     offset="100%"
     style="stop-color:rgb(101,9,18);stop-opacity: 1"
     id="stop32" /></linearGradient><linearGradient
   id="SVGID_2_590408-4"
   gradientUnits="userSpaceOnUse"
   gradientTransform="matrix(0,1894.77,1894.77,0,2983.82,6697.74)"
   x1="0"
   y1="0"
   x2="1"
   y2="0"><stop
     offset="0%"
     style="stop-color:rgb(237,52,66);stop-opacity: 1"
     id="stop22-0" /><stop
     offset="4.268591%"
     style="stop-color:rgb(237,52,66);stop-opacity: 1"
     id="stop24-9" /><stop
     offset="38.340999999999994%"
     style="stop-color:rgb(194,21,44);stop-opacity: 1"
     id="stop26-0" /><stop
     offset="86.24770699999999%"
     style="stop-color:rgb(101,9,18);stop-opacity: 1"
     id="stop28-2" /><stop
     offset="98.7504%"
     style="stop-color:rgb(101,9,18);stop-opacity: 1"
     id="stop30-8" /><stop
     offset="100%"
     style="stop-color:rgb(101,9,18);stop-opacity: 1"
     id="stop32-2" /></linearGradient></defs>
<g
   transform="matrix(1.969278,0,0,1.969278,640.01538,512.01231)"
   id="background-logo">

</g>

<g
   transform="matrix(2.9119266,0,0,2.8915567,647.79651,925.47507)"
   id="text-logo-path">

</g>
<g
   transform="matrix(3.3562499,0,0,3.6575362,510.87599,510.88224)"
   id="logo-logo"
   style="stroke-width:1.0001;stroke-miterlimit:4;stroke-dasharray:none"><g
     paint-order="stroke"
     id="g39"
     style="stroke-width:1.0001;stroke-miterlimit:4;stroke-dasharray:none"><g
       transform="matrix(0.19523741,0,0,-0.19523741,0,-0.47057981)"
       id="g20"
       style="stroke-width:5.12246;stroke-miterlimit:4;stroke-dasharray:none"><linearGradient
         id="SVGID_1_590407"
         gradientUnits="userSpaceOnUse"
         gradientTransform="matrix(0,-2031.77,-2031.77,0,2983.82,9105.42)"
         x1="0"
         y1="0"
         x2="1"
         y2="0"><stop
           offset="0%"
           style="stop-color:rgb(247,150,15);stop-opacity: 1"
           id="stop9" /><stop
           offset="53.0313%"
           style="stop-color:rgb(241,71,29);stop-opacity: 1"
           id="stop11" /><stop
           offset="58.260433%"
           style="stop-color:rgb(241,71,29);stop-opacity: 1"
           id="stop13" /><stop
           offset="100%"
           style="stop-color:rgb(213,40,40);stop-opacity: 1"
           id="stop15" /></linearGradient><path
         style="opacity:1;fill:#ed7117;fill-opacity:1;fill-rule:evenodd;stroke:none;stroke-width:5.12246;stroke-linecap:butt;stroke-linejoin:miter;stroke-miterlimit:4;stroke-dasharray:none;stroke-dashoffset:0"
         paint-order="stroke"
         transform="translate(-2983.82,-8148.905)"
         d="m 3490.38,8501.12 c -188.62,-52.42 -384.73,-7.58 -476.29,102.73 -15.88,19.12 -44.66,19.12 -60.54,0 -91.57,-110.31 -287.66,-155.15 -476.29,-102.73 -26.27,7.3 -52.09,-12.5 -50.48,-39.71 13.44,-226.62 74.53,-788.76 454.29,-998.52 -243.47,82.73 -535.58,507.86 -654.55,984.73 -25.88,103.74 25.85,212.21 122.55,257.84 182.9,86.31 408.83,129.46 634.75,129.46 225.93,0 451.84,-43.15 634.75,-129.46 96.7,-45.64 148.43,-154.1 122.55,-257.84 -118.97,-476.87 -411.07,-902 -654.57,-984.73 379.77,209.76 440.87,771.9 454.31,998.52 1.61,27.21 -24.21,47.01 -50.48,39.71"
         stroke-linecap="round"
         id="path18" /></g><g
       transform="matrix(0.19660834,0,0,-0.19660834,-9.8304168e-4,20.302934)"
       id="g37"
       style="stroke-width:5.08674;stroke-miterlimit:4;stroke-dasharray:none"><linearGradient
         id="linearGradient205"
         gradientUnits="userSpaceOnUse"
         gradientTransform="matrix(0,1894.77,1894.77,0,2983.82,6697.74)"
         x1="0"
         y1="0"
         x2="1"
         y2="0"><stop
           offset="0%"
           style="stop-color:rgb(237,52,66);stop-opacity: 1"
           id="stop193" /><stop
           offset="4.268591%"
           style="stop-color:rgb(237,52,66);stop-opacity: 1"
           id="stop195" /><stop
           offset="38.340999999999994%"
           style="stop-color:rgb(194,21,44);stop-opacity: 1"
           id="stop197" /><stop
           offset="86.24770699999999%"
           style="stop-color:rgb(101,9,18);stop-opacity: 1"
           id="stop199" /><stop
           offset="98.7504%"
           style="stop-color:rgb(101,9,18);stop-opacity: 1"
           id="stop201" /><stop
           offset="100%"
           style="stop-color:rgb(101,9,18);stop-opacity: 1"
           id="stop203" /></linearGradient><path
         style="opacity:1;fill:url(#SVGID_2_590408-4);fill-rule:evenodd;stroke:none;stroke-width:5.08674;stroke-linecap:butt;stroke-linejoin:miter;stroke-miterlimit:4;stroke-dasharray:none;stroke-dashoffset:0"
         paint-order="stroke"
         transform="translate(-2983.815,-8043.2456)"
         d="m 2960.04,8612 c -90.3,-118.55 -297.63,-166.48 -494.33,-107.55 -20.48,6.14 -40.76,-9.7 -39.61,-31.04 12.03,-222.96 68.4,-796.99 454.97,-1010.52 v 352.22 c 0,23.68 -13.31,44.82 -33.76,56.75 -80.64,47.02 -134.83,134.44 -134.83,234.55 0,102.31 56.64,191.39 140.26,237.61 13.31,7.35 29.72,-2.63 29.72,-17.84 v -204.37 c 0,-27.86 14.87,-53.61 39,-67.54 l 23.38,-13.49 c 24.12,-13.93 53.84,-13.93 77.96,0 l 23.37,13.49 c 24.13,13.93 39,39.68 39,67.54 v 204.37 c 0,15.21 16.41,25.19 29.71,17.84 83.63,-46.22 140.27,-135.29 140.27,-237.61 0,-100.11 -54.18,-187.53 -134.82,-234.55 -20.46,-11.93 -33.77,-33.07 -33.77,-56.75 l -0.01,-352.22 c 386.58,213.53 442.96,787.56 454.98,1010.52 1.15,21.34 -19.13,37.18 -39.61,31.04 -196.69,-58.93 -404.03,-11 -494.31,107.54 -11.79,15.48 -35.79,15.48 -47.57,0.01"
         stroke-linecap="round"
         id="path35" /></g></g></g></svg>
