<svg height="512pt" viewBox="-91 0 512 512.00014" width="512pt" xmlns="http://www.w3.org/2000/svg"><path d="m60 285.609375v211.371094c0 11.980469 13.382812 19.113281 23.320312 12.480469l81.628907-54.445313c88.234375 58.78125 83.734375 56.964844 90.050781 56.964844 8.210938 0 15-6.65625 15-14.996094v-211.375c-60.257812 52.542969-149.792969 52.5-210 0zm0 0" fill="#ee3616"/><path d="m165 324.996094v130.046875c88.179688 58.746093 83.679688 56.9375 90 56.9375 8.210938 0 15-6.660157 15-15v-211.371094c-30.121094 26.257813-67.558594 39.386719-105 39.386719zm0 0" fill="#cb0010"/><path d="m165 329.988281c-90.980469 0-165-74.015625-165-164.996093 0-90.976563 74.019531-164.992188 165-164.992188s165 74.015625 165 164.992188c0 90.980468-74.019531 164.996093-165 164.996093zm0 0" fill="#fcbe29"/><path d="m330 164.992188c0 51.128906-23.378906 96.898437-60 127.195312-28.550781 23.601562-65.148438 37.800781-105 37.800781v-329.988281c90.980469 0 165 74.015625 165 164.992188zm0 0" fill="#fe9022"/><path d="m165 30c-74.4375 0-135 60.558594-135 134.992188 0 74.4375 60.5625 134.996093 135 134.996093s135-60.558593 135-134.996093c0-74.433594-60.5625-134.992188-135-134.992188zm0 0" fill="#fed941"/><path d="m300 164.992188c0 74.4375-60.558594 134.996093-135 134.996093v-269.988281c74.441406 0 135 60.558594 135 134.992188zm0 0" fill="#fcbe29"/><path d="m210.546875 251.355469-45.621094-23.996094-45.632812 23.980469c-10.984375 5.769531-23.863281-3.582032-21.761719-15.816406l8.726562-50.804688-36.90625-35.984375c-8.882812-8.664063-3.96875-23.800781 8.316407-25.585937l51.015625-7.402344 22.820312-46.21875c5.488282-11.121094 21.40625-11.128906 26.898438.007812l22.808594 46.226563 51.011718 7.421875c12.277344 1.785156 17.199219 16.921875 8.304688 25.585937l-36.917969 35.972657 8.707031 50.804687c2.113282 12.332031-10.882812 21.539063-21.769531 15.808594zm0 0" fill="#fe9022"/><path d="m260.53125 148.765625-36.921875 35.976563 8.699219 50.808593c2.121094 12.332031-10.867188 21.53125-21.757813 15.800781l-45.550781-23.949218v-166.214844c5.328125.019531 10.671875 2.800781 13.398438 8.351562l22.8125 46.21875 51.007812 7.429688c12.28125 1.777344 17.203125 16.917969 8.3125 25.578125zm0 0" fill="#fd6328"/></svg>