<svg height="512pt" viewBox="-48 0 512 512.00052" width="512pt" xmlns="http://www.w3.org/2000/svg"><path d="m208.167969 78.167969h59.65625l-22.59375 22.632812c-5.851563 5.863281-5.84375 15.359375.019531 21.214844 5.851562 5.84375 15.347656 5.855469 21.210938-.019531l48.117187-48.199219c5.921875-5.929687 5.867187-15.6875-.34375-21.539063l-47.773437-47.855468c-5.851563-5.859375-15.347657-5.867188-21.210938-.015625-5.863281 5.851562-5.871094 15.347656-.019531 21.210937l22.53125 22.570313c-67.972657 0-59.496094 0-60.238281 0-158.574219 0-259.230469 172.582031-179.714844 311.300781 4.117187 7.183594 13.277344 9.675781 20.472656 5.554688 7.1875-4.121094 9.671875-13.289063 5.554688-20.476563-68.316407-119.179687 18.914062-267.058594 154.332031-266.378906zm0 0" fill="#fe9022"/><path d="m314.578125 73.800781-48.121094 48.199219c-5.859375 5.871094-15.359375 5.859375-21.207031.011719-5.863281-5.851563-5.871094-15.351563-.023438-21.210938l22.601563-22.628906h-60.101563v-30h60.03125l-22.53125-22.570313c-5.847656-5.871093-5.839843-15.359374.023438-21.21875 5.859375-5.851562 15.359375-5.839843 21.207031.019532l47.78125 47.859375c6.210938 5.847656 6.261719 15.609375.339844 21.539062zm0 0" fill="#fd6328"/><path d="m387.648438 152.535156c-4.121094-7.1875-13.285157-9.675781-20.472657-5.554687-7.1875 4.121093-9.671875 13.285156-5.554687 20.472656 67.914062 118.480469-17.800782 266.378906-153.894532 266.378906h-60.09375l22.59375-22.632812c5.855469-5.863281 5.847657-15.359375-.015624-21.214844-5.863282-5.851563-15.363282-5.84375-21.214844.019531l-48.117188 48.199219c-5.882812 5.894531-5.914062 15.667969.363282 21.558594l47.753906 47.835937c5.847656 5.859375 15.347656 5.875 21.214844.019532 5.863281-5.855469 5.871093-15.351563.019531-21.214844l-22.53125-22.566406h60.21875c158.652343-.007813 259.230469-172.613282 179.730469-311.300782zm0 0" fill="#fe9022"/><path d="m207.726562 463.832031v-30c136.089844 0 221.8125-147.902343 153.890626-266.382812-4.117188-7.179688-1.628907-16.347657 5.5625-20.46875 7.179687-4.121094 16.347656-1.628907 20.46875 5.550781 79.421874 138.550781-20.847657 311.300781-179.921876 311.300781zm0 0" fill="#fd6328"/><path d="m222.726562 241h-30c-8.269531 0-15-6.726562-15-15 0-8.269531 6.730469-15 15-15h60c8.285157 0 15-6.714844 15-15 0-8.28125-6.714843-15-15-15h-30v-15c0-8.28125-6.714843-15-15-15-8.28125 0-15 6.71875-15 15v15c-24.8125 0-44.996093 20.1875-44.996093 45s20.183593 45 44.996093 45h30c8.273438 0 15 6.730469 15 15.003906 0 8.273438-6.6875 15-15 15-.003906 0-60-.003906-59.996093-.003906-8.285157 0-15 6.714844-15 15-.003907 8.28125 6.710937 15 14.996093 15l30 .003906v14.996094c0 8.285156 6.71875 15 15 15 8.285157 0 15-6.714844 15-15v-14.996094c24.867188 0 45-20.121094 45-45 0-24.816406-20.1875-45.003906-45-45.003906zm0 0" fill="#fed941"/><g fill="#fcbe29"><path d="m267.726562 286c0 24.878906-20.128906 45-45 45v15c0 8.28125-6.71875 15-15 15v-60h15c8.3125 0 15-6.730469 15-15s-6.726562-15-15-15h-15v-30h15c24.8125 0 45 20.191406 45 45zm0 0"/><path d="m252.726562 211h-45v-60c8.28125 0 15 6.722656 15 15v15h30c8.28125 0 15 6.722656 15 15 0 8.28125-6.71875 15-15 15zm0 0"/></g></svg>