<svg id="Capa_1" enable-background="new 0 0 512 512" height="512" viewBox="0 0 512 512" width="512" xmlns="http://www.w3.org/2000/svg"><g><path d="m366 330h-220c-57.897 0-105 47.103-105 105v62c0 8.284 6.716 15 15 15h65l15-20 15 20h210l15-20 15 20h65c8.284 0 15-6.716 15-15v-62c0-57.897-47.103-105-105-105z" fill="#ff7038"/><path d="m366 330h-110v182h105l15-20 15 20h65c8.284 0 15-6.716 15-15v-62c0-57.897-47.103-105-105-105z" fill="#ff405c"/><path d="m396 160c-8.284 0-15-6.716-15-15v-20c0-52.383-42.617-95-95-95h-60c-52.383 0-95 42.617-95 95v20c0 8.284-6.716 15-15 15s-15-6.716-15-15v-20c0-68.925 56.075-125 125-125h60c68.925 0 125 56.075 125 125v20c0 8.284-6.716 15-15 15z" fill="#00429b"/><path d="m286 0h-30v30h30c52.383 0 95 42.617 95 95v20c0 8.284 6.716 15 15 15s15-6.716 15-15v-20c0-68.925-56.075-125-125-125z" fill="#002659"/><path d="m396 240h-50c-8.284 0-15-6.716-15-15v-80c0-8.284 6.716-15 15-15h50c19.299 0 35 15.701 35 35v40c0 19.299-15.701 35-35 35z" fill="#056eff"/><path d="m166 240h-50c-19.299 0-35-15.701-35-35v-40c0-19.299 15.701-35 35-35h50c8.284 0 15 6.716 15 15v80c0 8.284-6.716 15-15 15z" fill="#6ba7ff"/><g><path d="m196 284.824v65.176c0 33.137 26.863 60 60 60 33.137 0 60-26.863 60-60v-65.176z" fill="#fab387"/><path d="m256 410c33.137 0 60-26.863 60-60v-65.176h-60z" fill="#eb9c6f"/></g><path d="m256 132-105 38v55c0 57.897 47.103 105 105 105s105-47.103 105-105v-55z" fill="#ffceaa"/><path d="m361 225v-55l-105-38v198c57.897 0 105-47.103 105-105z" fill="#fab387"/><path d="m375.275 440.017c-8.068.38-14.275 7.33-14.275 15.407v56.576h30v-57c0-8.525-7.111-15.389-15.725-14.983z" fill="#f90024"/><path d="m135.275 440.017c-8.068.38-14.275 7.33-14.275 15.407v56.576h30v-57c0-8.525-7.111-15.389-15.725-14.983z" fill="#ff405c"/><path d="m296 170c-15.745 0-29.964-6.649-40-17.288-10.036 10.639-24.255 17.288-40 17.288h-65v-45c0-41.421 33.579-75 75-75h60c41.421 0 75 33.579 75 75v45z" fill="#00429b"/><path d="m286 50h-30v102.712c10.036 10.639 24.255 17.288 40 17.288h65v-45c0-41.421-33.579-75-75-75z" fill="#002659"/><path d="m236 290h-90c-24.813 0-45-20.187-45-45v-20c0-8.284 6.716-15 15-15s15 6.716 15 15v20c0 8.271 6.729 15 15 15h90c8.284 0 15 6.716 15 15s-6.716 15-15 15z" fill="#00429b"/></g></svg>